<svg height="200pt" preserveAspectRatio="xMidYMid meet" viewBox="0 0 200 200" width="200pt" fill="#707070" xmlns="http://www.w3.org/2000/svg"><g transform="matrix(.1 0 0 -.1 0 200)"><path d="m1453 1788c-6-7-34-53-63-103-29-49-53-91-54-92-2-2-31 8-65 22-95 39-190 55-322 55-150 0-237-18-354-75-148-72-242-172-301-321-15-38-40-96-55-129-50-111-63-171-64-295 0-136 21-212 88-311 23-34 53-80 67-103 34-57 118-140 170-166 62-32 233-60 400-67 119-4 171-2 290 16 229 35 281 68 412 263 97 145 119 204 126 334 5 115-12 214-53 302l-24 52h83c88 0 117 14 116 56-1 10-74 143-163 294-152 258-164 275-193 278-17 2-35-3-41-10zm190-300c81-138 146-253 144-255s-137-2-300-1l-297 3 147 253c82 138 150 252 153 252s71-113 153-252zm-498 112c76-21 155-52 155-62 0-5-25-52-57-104-36-61-61-93-69-90-40 15-200 28-285 22-95-6-250-39-321-69-20-9-57-34-82-57-81-75-106-185-106-468 0-193 17-296 61-371l21-36-32 30c-38 37-94 147-117 235-14 51-18 107-18 265 0 228 9 276 75 411 77 157 235 267 438 304 60 11 285 5 337-10zm450-452c4-13 10-106 12-208 7-264-21-395-109-514-47-63-59-67-29-9 30 60 49 148 56 258 9 134-9 368-33 439l-19 56h57c51 0 59-3 65-22zm-901-124c26-15 49-24 52-21s-8 13-26 22-29 19-27 22c3 3 16-2 29-11 26-18 42-21 32-5-3 6 8 3 25-5 34-18 41-28 14-20-16 4-16 3 1-8 10-7 28-21 40-31 20-16 20-17 1-11-20 6-20 5-1-10 11-9 24-16 29-16s7-7 3-15c-3-8-1-15 4-15 6 0 10-5 10-10 0-12-55 14-66 31-4 7 1 7 16-1 12-6 24-10 26-7 3 3-45 32-105 66-97 54-123 71-107 71 2 0 25-12 50-26zm586 11c42-4 44-5 70-26l25-20-33 16c-56 27-47 10 13-24 58-33 77-53 24-26-17 9-33 14-36 11-3-2 13-14 35-25 23-11 44-26 48-32 4-8 0-7-16 1-12 6-24 9-27 7-3-3 10-13 29-23s27-19 20-22c-10-3-10-7 0-20 11-13 8-13-19 2-38 19-43 30-10 21 21-6 21-6 3 9-11 9-24 16-29 16s-7 7-3 15c3 10-14 25-57 49-80 45-103 54-92 36 6-10 4-12-8-7-10 4-24 10-34 14-12 4-14 3-8-6 6-10 2-11-15-6-15 5-20 4-16-4 10-16-7-13-30 5-18 15-18 15 5 8 17-4 21-3 16 6-6 9-1 10 16 5 22-7 23-7 9 10s-14 17 17 2c40-21 54-21 28 0-16 13-17 14-2 9 51-18 53-18 32 0l-20 17 20-8c11-4 31-9 45-10zm-625-16c20-12 34-23 32-26-5-4-77 36-77 43s9 4 45-17zm-6-25c2-2-2-4-10-4s-25 10-39 21l-25 20 35-17c19-9 37-18 39-20zm-53 2c18-14 18-15-8-21-16-4-25-11-22-16 9-14-10-10-32 7-18 14-18 15 6 9 25-6 25-6 5 11-16 14-17 16-2 10 51-18 53-18 33-2-25 20-7 21 20 2zm520-22c18-14 18-14-6-3-31 14-36 19-24 19 6 0 19-7 30-16zm-17-13c16-10 6-31-15-31-9 0-12-5-8-12 5-8 2-9-10-5-10 4-20 7-22 7s-4 4-4 10c0 5 8 6 18 3 15-6 16-5 2 12s-14 18 7 7c30-17 42-14 19 3-21 16-10 21 13 6zm-563-16c12-9 14-14 6-15-7 0-10-5-6-11 4-8-1-9-17-5-23 7-23 7-5-8 25-20 6-21-20-1-12 9-14 14-6 15 7 0 10 5 6 11-4 8 1 9 17 5 23-7 23-7 5 8-25 20-6 21 20 1zm1135-190c-10-36-10-34-6 24 3 35 6 82 7 105 1 25 3 15 5-24 2-36-1-83-6-105zm-1432 63-2-93-9 67c-9 61-6 118 7 118 3 0 4-42 4-92zm827 77c12-9 14-14 6-15-7 0-10-5-6-11 4-8-1-9-17-4l-24 6 25-21 25-21-27 12c-33 14-36 52-3 43 20-5 20-5 1 10-25 20-6 21 20 1zm-547-21c14-12-19-1-35 12-18 14-18 14 6 3 14-6 27-13 29-15zm363-22c-10-3-10-7 0-20 11-13 8-13-19 2-38 19-43 30-10 21 21-6 21-6-3 15l-25 21 35-17c20-10 29-19 22-22zm-382 8c8-5 12-11 9-14s-14 1-25 9c-21 16-8 20 16 5zm6-46c-2-6 1-17 7-24 7-7-3-5-20 4-38 19-43 30-10 21 21-6 21-6-3 15l-25 21 28-13c15-6 26-17 23-24zm931-5c-2-23-7-24-33-3-18 14-18 15 6 9l25-6-25 21-25 21 27-12c16-7 26-19 25-30zm-392 19c28-13 35-30 8-22-12 4-10-1 7-16l25-21-34 16c-23 12-30 19-21 25s8 10-6 19c-25 14-11 14 21-1zm-156-24c14-12-19-1-35 12-18 14-18 14 6 3 14-6 27-13 29-15zm-9-25c0-5-11-3-25 3s-25 15-25 19c0 5 11 3 25-3s25-15 25-19zm548-4c1-1 0-9-4-18-3-10-12-13-22-9-15 5-16 4-2-13s14-18-10-5c-15 8-20 15-12 18 6 2 9 8 6 14-4 6 2 8 17 3l24-6-25 21-25 21 25-12c14-6 26-13 28-14zm-893-25c3-6-1-7-9-4-37 14-11-7 51-42 62-34 151-55 137-32-4 6 2 7 16 3 17-5 21-4 15 6-6 8-4 11 6 7 8-3 23-9 34-13 20-7 20-6 1 9-24 19-7 21 18 3 18-13 18-14 1-21-10-3-27-4-39-1-21 6-21 6-1-11 16-14 17-16 3-10-52 18-54 18-34 2 25-20 14-20-25 0s-50 11-12-10c15-8 24-15 18-15-5 0-21 6-35 14-33 19-50 18-26 0 25-19 9-19-24 0-30 17-44 19-34 4 4-8 0-8-15 0-24 13-28 23-6 15 31-12 14 6-24 26-22 11-43 25-47 31-4 8 0 7 16-1 12-6 24-9 27-7 3 3-13 15-36 27-45 22-54 35-18 25 21-6 21-6-3 15l-25 21 32-15c17-9 35-20 38-26zm335 4c0-2-9 0-20 6s-20 13-20 16c0 2 9 0 20-6s20-13 20-16zm198 6c45-28 40-35-8-10-38 19-49 30-32 30 4 0 22-9 40-20zm-222-16c18-14 18-15-6-9s-24 5-6-9c25-20 6-21-20-1-12 9-14 14-6 15 7 0 10 5 7 10-9 15 9 12 31-6zm367-78c8 3 30-4 48-15 40-25 31-28-12-5-39 20-50 11-12-10 42-23 18-19-28 5-46 23-66 19-22-5 15-8 24-15 19-16-19 0-145 76-143 87 1 7-7 19-18 28s19-4 67-29c47-25 93-44 101-40zm173 48c18-14 18-14-6-3-31 14-36 19-24 19 6 0 19-7 30-16zm-547-20c14-12-19-1-35 12-18 14-18 14 6 3 14-6 27-13 29-15zm525 10c9-3 16-10 16-15 0-4-7-5-17-2-11 5-14 3-8-6 6-10 2-11-16-7-23 7-23 7-5-8 23-19 17-20-19-4-27 12-35 31-8 21 11-5 14-3 8 6-6 10-2 11 15 6 15-5 20-4 16 4-8 13-4 14 18 5zm-72-44c18-11 29-20 25-20-11 0-67 29-67 35 0 9 9 5 42-15zm-172-16c0-2-9 0-20 6s-20 13-20 16c0 2 9 0 20-6s20-13 20-16z"/><path d="m1460 1480v-110h30 30v110 110h-30-30z"/><path d="m1460 1310c0-27 3-30 30-30s30 3 30 30-3 30-30 30-30-3-30-30z"/><path d="m750 995c0-8 61-37 67-31 3 2-9 12-26 20-31 17-41 19-41 11z"/><path d="m1250 1015c0-8 82-47 87-41 3 2-13 14-36 25-41 22-51 25-51 16z"/><path d="m550 695c0-8 82-47 87-41 3 2-13 14-36 25-41 22-51 25-51 16z"/><path d="m1105 685c39-24 55-30 55-20 0 6-76 45-87 45-4 0 10-12 32-25z"/></g></svg>