<svg width="294" height="23" viewBox="0 0 294 23" fill="none" xmlns="http://www.w3.org/2000/svg">
<path d="M129.14 22.12C123.82 22.12 119.48 17.68 119.48 12.23V1.04999H124.74V12.22C124.74 14.77 126.71 16.85 129.13 16.85C131.55 16.85 133.52 14.77 133.52 12.22V1.04999H138.78V12.22C138.8 17.68 134.47 22.12 129.14 22.12Z" fill="white"/>
<path d="M90.18 6.29C89.6 5.82 89.02 5.47 88.45 5.25C87.87 5.02 87.31 4.91 86.77 4.91C86.08 4.91 85.52 5.07 85.09 5.4C84.66 5.73 84.44 6.15 84.44 6.67C84.44 7.03 84.55 7.33 84.76 7.56C84.98 7.79 85.26 8 85.61 8.17C85.96 8.34 86.36 8.49 86.8 8.62C87.24 8.75 87.68 8.88 88.11 9.03C89.84 9.61 91.11 10.38 91.92 11.35C92.72 12.32 93.13 13.58 93.13 15.13C93.13 16.18 92.95 17.13 92.6 17.98C92.25 18.83 91.73 19.56 91.06 20.16C90.39 20.76 89.55 21.23 88.57 21.57C87.59 21.91 86.47 22.07 85.22 22.07C82.64 22.07 80.24 21.3 78.04 19.77L80.32 15.49C81.12 16.19 81.9 16.72 82.68 17.06C83.46 17.4 84.22 17.58 84.98 17.58C85.85 17.58 86.49 17.38 86.92 16.98C87.34 16.58 87.56 16.13 87.56 15.62C87.56 15.31 87.51 15.05 87.4 14.82C87.29 14.59 87.11 14.39 86.86 14.2C86.61 14.01 86.28 13.83 85.87 13.67C85.46 13.51 84.97 13.33 84.39 13.13C83.7 12.91 83.03 12.67 82.37 12.41C81.71 12.15 81.12 11.8 80.61 11.37C80.09 10.94 79.68 10.39 79.36 9.73C79.04 9.07 78.89 8.23 78.89 7.22C78.89 6.21 79.06 5.29 79.39 4.47C79.72 3.65 80.19 2.94 80.8 2.36C81.4 1.77 82.15 1.32 83.02 0.990002C83.9 0.660002 84.88 0.5 85.96 0.5C86.97 0.5 88.03 0.639998 89.13 0.919998C90.23 1.2 91.29 1.61 92.3 2.15L90.18 6.29Z" fill="white"/>
<path d="M194.62 5.54999H187.55V8.96999H194.27V13.47H187.55V16.99H194.62V21.49H182.23V1.04999H194.62V5.54999Z" fill="white"/>
<path d="M118.49 21.8L114.99 17.31C115 17.3 115.01 17.28 115.02 17.27C116.14 15.56 116.8 13.52 116.8 11.32C116.8 5.34 111.95 0.479996 105.96 0.479996C99.97 0.479996 95.12 5.33 95.12 11.32C95.12 17.31 99.97 22.16 105.96 22.16C107.97 22.16 109.8 21.41 111.41 20.46L112.7 21.81L118.49 21.8ZM100.9 11.32C100.9 8.53 103.17 6.25999 105.96 6.25999C108.75 6.25999 111.02 8.53 111.02 11.32C111.02 14.11 108.75 16.38 105.96 16.38C103.17 16.38 100.9 14.11 100.9 11.32Z" fill="white"/>
<path d="M154.93 21.49H160.59L152.81 1.04999H147.01L139.23 21.49H144.89L146.03 18.23H153.79L154.93 21.49ZM147.44 14.21L149.92 7.09999L152.4 14.21H147.44Z" fill="white"/>
<path d="M173.17 13.66C175.96 13.66 177.84 10.61 177.84 7.63999C177.84 4.66999 175.56 1.04999 171.71 1.04999C168.92 1.04999 162.81 1.04999 162.81 1.04999V21.49H168.12V14L172.7 21.49H178.75L173.17 13.66ZM171.54 9.53999C170.98 9.96999 170.18 10.19 169.13 10.19H168.13V5.14999H169.13C170.18 5.14999 170.98 5.36999 171.54 5.79999C172.1 6.22999 172.38 6.85999 172.38 7.66999C172.38 8.47999 172.1 9.09999 171.54 9.53999Z" fill="white"/>
<path d="M63.6 9.47999L70.08 1.04999H76.64L68.54 10.73L77.4 21.49H70.51L63.6 12.63V21.49H58.29V1.04999H63.6V9.47999Z" fill="white"/>
<path d="M209.52 3.09999C205.89 3.09999 202.98 5.96999 202.98 11.28C202.98 16.58 205.89 19.46 209.68 19.46C213.14 19.46 215.55 17.15 215.62 13.48H210.24V11.29H218.02V13.48C218.02 18.53 214.55 21.78 209.68 21.78C204.26 21.78 200.59 17.75 200.59 11.29C200.59 4.82999 204.29 0.799988 209.52 0.799988C213.83 0.799988 217.14 3.50999 217.9 7.45999H215.35C214.48 4.76999 212.47 3.09999 209.52 3.09999Z" fill="white"/>
<path d="M221.96 1.06999H228.86C233.65 1.06999 235.8 3.71999 235.8 7.32999C235.8 10.04 234.58 12.17 231.98 13.05L236.6 21.49H233.73L229.42 13.5C229.25 13.51 229.08 13.51 228.9 13.51H224.43V21.49H221.96V1.06999V1.06999ZM228.82 11.28C232.09 11.28 233.37 9.77999 233.37 7.32999C233.37 4.87999 232.09 3.25999 228.78 3.25999H224.43V11.28H228.82Z" fill="white"/>
<path d="M247.7 21.77C242.48 21.77 238.69 17.74 238.69 11.28C238.69 4.81999 242.48 0.789993 247.7 0.789993C252.92 0.789993 256.71 4.81999 256.71 11.28C256.71 17.74 252.92 21.77 247.7 21.77ZM247.7 3.09999C243.99 3.09999 241.08 5.96999 241.08 11.28C241.08 16.58 243.99 19.46 247.7 19.46C251.41 19.46 254.32 16.59 254.32 11.28C254.32 5.96999 251.41 3.09999 247.7 3.09999Z" fill="white"/>
<path d="M276.02 1.06999V14.59C276.02 18.78 272.89 21.85 268.08 21.85C263.27 21.85 260.14 18.78 260.14 14.59V1.06999H262.61V14.39C262.61 17.38 264.66 19.54 268.07 19.54C271.48 19.54 273.53 17.39 273.53 14.39V1.06999H276.02Z" fill="white"/>
<path d="M280.1 1.06999H287C291.8 1.06999 293.94 3.91999 293.94 7.52999C293.94 11.14 291.8 14.03 287.04 14.03H282.57V21.49H280.1V1.06999V1.06999ZM286.96 11.84C290.24 11.84 291.51 9.98999 291.51 7.52999C291.51 5.07999 290.24 3.25999 286.92 3.25999H282.57V11.83H286.96V11.84Z" fill="white"/>
<path d="M0.639999 1.08H15.94V3.27H9.53V21.48H7.06V3.27H0.639999V1.08Z" fill="white"/>
<path d="M20.22 1.08H22.69V10.16H33.57V1.08H36.04V21.48H33.57V12.36H22.69V21.48H20.22V1.08Z" fill="white"/>
<path d="M40.11 1.08H52.42V3.27H42.58V10.16H51.78V12.35H42.58V19.28H52.58V21.47H40.11V1.08Z" fill="white"/>
</svg>
