<?xml version="1.0" encoding="utf-8"?>
<!-- Generator: Adobe Illustrator 24.3.0, SVG Export Plug-In . SVG Version: 6.00 Build 0)  -->
<svg version="1.1" id="Layer_1" xmlns="http://www.w3.org/2000/svg" xmlns:xlink="http://www.w3.org/1999/xlink" x="0px" y="0px"
	 viewBox="0 0 417 105" style="enable-background:new 0 0 417 105;" xml:space="preserve">
<style type="text/css">
	.st0{fill:#1E326B;}
	.st1{fill:#46A0B6;}
</style>
<polygon class="st0" points="19.06,82.54 64.38,21.46 84.08,21.46 62.41,51.01 85.07,82.54 65.36,82.54 52.56,64.81 38.69,82.54 "/>
<polygon class="st0" points="39.54,21.46 19.84,21.46 19.84,58.54 39.54,31.24 "/>
<path class="st0" d="M29.9,46.34"/>
<g>
	<g>
		<path class="st0" d="M224.14,63.12c-5.32,0-9.66-4.44-9.66-9.89V42.05h5.26v11.17c0,2.55,1.97,4.63,4.39,4.63
			c2.42,0,4.39-2.08,4.39-4.63V42.05h5.26v11.17C233.8,58.68,229.47,63.12,224.14,63.12z"/>
	</g>
	<g>
		<path class="st0" d="M185.18,47.29c-0.58-0.47-1.16-0.82-1.73-1.04c-0.58-0.23-1.14-0.34-1.68-0.34c-0.69,0-1.25,0.16-1.68,0.49
			c-0.43,0.33-0.65,0.75-0.65,1.27c0,0.36,0.11,0.66,0.32,0.89c0.22,0.23,0.5,0.44,0.85,0.61c0.35,0.17,0.75,0.32,1.19,0.45
			c0.44,0.13,0.88,0.26,1.31,0.41c1.73,0.58,3,1.35,3.81,2.32c0.8,0.97,1.21,2.23,1.21,3.78c0,1.05-0.18,2-0.53,2.85
			c-0.35,0.85-0.87,1.58-1.54,2.18s-1.51,1.07-2.49,1.41s-2.1,0.5-3.35,0.5c-2.58,0-4.98-0.77-7.18-2.3l2.28-4.28
			c0.8,0.7,1.58,1.23,2.36,1.57c0.78,0.34,1.54,0.52,2.3,0.52c0.87,0,1.51-0.2,1.94-0.6c0.42-0.4,0.64-0.85,0.64-1.36
			c0-0.31-0.05-0.57-0.16-0.8c-0.11-0.23-0.29-0.43-0.54-0.62c-0.25-0.19-0.58-0.37-0.99-0.53c-0.41-0.16-0.9-0.34-1.48-0.54
			c-0.69-0.22-1.36-0.46-2.02-0.72c-0.66-0.26-1.25-0.61-1.76-1.04c-0.52-0.43-0.93-0.98-1.25-1.64c-0.32-0.66-0.47-1.5-0.47-2.51
			s0.17-1.93,0.5-2.75c0.33-0.82,0.8-1.53,1.41-2.11c0.6-0.59,1.35-1.04,2.22-1.37c0.88-0.33,1.86-0.49,2.94-0.49
			c1.01,0,2.07,0.14,3.17,0.42c1.1,0.28,2.16,0.69,3.17,1.23L185.18,47.29z"/>
	</g>
	<g>
		<path class="st0" d="M289.62,46.55h-7.07v3.42h6.72v4.5h-6.72v3.52h7.07v4.5h-12.39V42.05h12.39V46.55z"/>
	</g>
	<path class="st0" d="M213.49,62.8l-3.5-4.49c0.01-0.01,0.02-0.03,0.03-0.04c1.12-1.71,1.78-3.75,1.78-5.95
		c0-5.98-4.85-10.84-10.84-10.84s-10.84,4.85-10.84,10.84s4.85,10.84,10.84,10.84c2.01,0,3.84-0.75,5.45-1.7l1.29,1.35H213.49z
		 M195.9,52.32c0-2.79,2.27-5.06,5.06-5.06s5.06,2.27,5.06,5.06c0,2.79-2.27,5.06-5.06,5.06S195.9,55.11,195.9,52.32z"/>
	<path class="st0" d="M244.36,58.94"/>
	<path class="st0" d="M249.93,62.49h5.66l-7.78-20.44h-5.8l-7.78,20.44h5.66l1.14-3.26h7.76L249.93,62.49z M242.44,55.21l2.48-7.11
		l2.48,7.11H242.44z"/>
	<path class="st0" d="M268.17,54.66c2.79,0,4.67-3.05,4.67-6.02c0-2.97-2.28-6.59-6.13-6.59c-2.79,0-8.9,0-8.9,0v20.44h5.31V55
		l4.58,7.49h6.05L268.17,54.66z M266.54,50.54c-0.56,0.43-1.36,0.65-2.41,0.65h-1v-5.04h1c1.05,0,1.85,0.22,2.41,0.65
		c0.56,0.43,0.84,1.06,0.84,1.87C267.38,49.48,267.1,50.1,266.54,50.54z"/>
	<g>
		<path class="st0" d="M158.6,50.48l6.48-8.43h6.56l-8.1,9.68l8.86,10.76h-6.89l-6.91-8.86v8.86h-5.31V42.05h5.31V50.48z"/>
	</g>
	<path class="st1" d="M304.52,44.1c-3.63,0-6.54,2.87-6.54,8.18c0,5.3,2.91,8.18,6.7,8.18c3.46,0,5.87-2.31,5.94-5.98h-5.38v-2.19
		h7.78v2.19c0,5.05-3.47,8.3-8.34,8.3c-5.42,0-9.09-4.03-9.09-10.49s3.7-10.49,8.93-10.49c4.31,0,7.62,2.71,8.38,6.66h-2.55
		C309.48,45.77,307.47,44.1,304.52,44.1z"/>
	<path class="st1" d="M316.96,42.07h6.9c4.79,0,6.94,2.65,6.94,6.26c0,2.71-1.22,4.84-3.82,5.72l4.62,8.44h-2.87l-4.31-7.99
		c-0.17,0.01-0.34,0.01-0.52,0.01h-4.47v7.98h-2.47V42.07z M323.82,52.28c3.27,0,4.55-1.5,4.55-3.95c0-2.45-1.28-4.07-4.59-4.07
		h-4.35v8.02H323.82z"/>
	<path class="st1" d="M342.7,62.77c-5.22,0-9.01-4.03-9.01-10.49s3.79-10.49,9.01-10.49c5.22,0,9.01,4.03,9.01,10.49
		S347.92,62.77,342.7,62.77z M342.7,44.1c-3.71,0-6.62,2.87-6.62,8.18c0,5.3,2.91,8.18,6.62,8.18c3.71,0,6.62-2.87,6.62-8.18
		C349.32,46.97,346.41,44.1,342.7,44.1z"/>
	<path class="st1" d="M371.02,42.07v13.52c0,4.19-3.13,7.26-7.94,7.26c-4.81,0-7.94-3.07-7.94-7.26V42.07h2.47v13.32
		c0,2.99,2.05,5.15,5.46,5.15s5.46-2.15,5.46-5.15V42.07H371.02z"/>
	<path class="st1" d="M375.1,42.07h6.9c4.8,0,6.94,2.85,6.94,6.46c0,3.61-2.14,6.5-6.9,6.5h-4.47v7.46h-2.47V42.07z M381.96,52.84
		c3.28,0,4.55-1.85,4.55-4.31c0-2.45-1.27-4.27-4.59-4.27h-4.35v8.57H381.96z"/>
	<path class="st1" d="M95.64,42.08h15.3v2.19h-6.41v18.21h-2.47V44.27h-6.42V42.08z"/>
	<path class="st1" d="M115.22,42.08h2.47v9.08h10.88v-9.08h2.47v20.4h-2.47v-9.12h-10.88v9.12h-2.47V42.08z"/>
	<path class="st1" d="M135.11,42.08h12.31v2.19h-9.84v6.89h9.2v2.19h-9.2v6.93h10v2.19h-12.47V42.08z"/>
</g>
</svg>
