<svg width="200" height="205" viewBox="0 0 200 205" fill="none" xmlns="http://www.w3.org/2000/svg">
<g clip-path="url(#clip0)">
<path d="M85.6546 13.2419L0.0179138 37.3273L31.6839 149.917L117.321 125.832L85.6546 13.2419Z" fill="url(#paint0_linear)"/>
<path d="M86.2104 14.13L-0.00241089 37.8284L11.8461 80.9321L98.0588 57.2337L86.2104 14.13Z" fill="url(#paint1_linear)"/>
<path d="M85.2832 15.4424L1.46904 38.4814L31.8313 148.937L115.645 125.898L85.2832 15.4424Z" fill="#EEEEEE"/>
<path d="M85.3498 15.3114L1.34259 38.4035L12.9148 80.5023L96.922 57.4102L85.3498 15.3114Z" fill="#49a7b7"/>
<path d="M56.6365 81.2591L33.8483 87.5232L34.3259 89.2607L57.1141 82.9966L56.6365 81.2591Z" fill="#BDBDBD"/>
<path d="M58.5481 88.2134L35.7599 94.4775L36.2375 96.215L59.0257 89.9509L58.5481 88.2134Z" fill="#F5F5F5"/>
<path d="M94.2865 74.6503L34.805 91.0008L35.2826 92.7383L94.7641 76.3878L94.2865 74.6503Z" fill="#69F0AE"/>
<path d="M61.3829 38.8276L38.5947 45.0917L39.0723 46.8292L61.8605 40.5651L61.3829 38.8276Z" fill="white"/>
<path d="M76.3493 38.8668L39.656 48.9532L40.1336 50.6906L76.8269 40.6043L76.3493 38.8668Z" fill="white"/>
<path opacity="0.2" d="M69.9611 46.026L48.8072 51.8408C48.3559 51.9648 48.0906 52.4313 48.2146 52.8826L48.296 53.1788C48.4201 53.6301 48.8865 53.8954 49.3379 53.7713L70.4917 47.9565C70.943 47.8324 71.2083 47.366 71.0843 46.9147L71.0028 46.6185C70.8788 46.1672 70.4124 45.9019 69.9611 46.026Z" fill="black"/>
<path d="M25.7713 96.2891C28.0118 95.6733 29.3288 93.3577 28.7129 91.1172C28.0971 88.8768 25.7815 87.5598 23.5411 88.1756C21.3006 88.7915 19.9836 91.107 20.5994 93.3475C21.2153 95.588 23.5308 96.905 25.7713 96.2891Z" fill="#69F0AE"/>
<path d="M61.2591 98.0614L38.4709 104.326L38.9485 106.063L61.7367 99.7989L61.2591 98.0614Z" fill="#BDBDBD"/>
<path d="M63.168 105.016L40.3798 111.28L40.8574 113.017L63.6456 106.753L63.168 105.016Z" fill="#F5F5F5"/>
<path d="M98.9064 91.4526L39.4249 107.803L39.9025 109.541L99.384 93.1901L98.9064 91.4526Z" fill="#E0E0E0"/>
<path d="M30.3885 113.092C32.629 112.476 33.946 110.161 33.3301 107.92C32.7143 105.68 30.3987 104.363 28.1583 104.979C25.9178 105.595 24.6008 107.91 25.2166 110.151C25.8325 112.391 28.148 113.708 30.3885 113.092Z" fill="#E0E0E0"/>
<path d="M65.8756 114.862L43.0874 121.126L43.565 122.863L66.3532 116.599L65.8756 114.862Z" fill="#BDBDBD"/>
<path d="M67.7872 121.813L44.999 128.077L45.4766 129.815L68.2648 123.551L67.7872 121.813Z" fill="#F5F5F5"/>
<path d="M103.524 108.253L44.042 124.603L44.5196 126.341L104.001 109.99L103.524 108.253Z" fill="#E0E0E0"/>
<path d="M35.0084 129.894C37.2488 129.279 38.5659 126.963 37.95 124.723C37.3341 122.482 35.0186 121.165 32.7781 121.781C30.5376 122.397 29.2206 124.712 29.8365 126.953C30.4523 129.193 32.7679 130.51 35.0084 129.894Z" fill="#E0E0E0"/>
<path d="M10.7594 57.6561C11.3479 59.6958 12.4849 61.5347 14.0466 62.9726C15.6083 64.4104 17.5347 65.392 19.6159 65.8103C21.6971 66.2286 23.8532 66.0676 25.8492 65.3448C27.8452 64.6221 29.6044 63.3653 30.9353 61.7114C32.2661 60.0575 33.1174 58.0701 33.3963 55.9657C33.6753 53.8613 33.3713 51.7207 32.5174 49.7772C31.6635 47.8337 30.2924 46.1619 28.5537 44.944C26.815 43.7261 24.7754 43.0089 22.6571 42.8705L23.4799 45.742C23.7648 46.7429 23.642 47.8158 23.1384 48.7264C22.6348 49.637 21.7913 50.3113 20.7921 50.602V50.602C19.7912 50.8869 18.7183 50.7642 17.8077 50.2605C16.8971 49.7569 16.2228 48.9134 15.9321 47.9142L15.1093 45.0427C13.1743 46.4419 11.7182 48.4041 10.9397 50.6615C10.1612 52.9189 10.0982 55.3616 10.7594 57.6561Z" fill="url(#paint2_linear)"/>
<path d="M32.8049 50.3278C32.2413 48.2807 31.1264 46.4277 29.5819 44.9709C28.0374 43.514 26.1226 42.5091 24.0462 42.0658C21.9698 41.6224 19.8115 41.7577 17.8067 42.4569C15.8019 43.156 14.0275 44.3921 12.6771 46.0305C11.3266 47.6689 10.4519 49.6466 10.1483 51.748C9.84465 53.8493 10.1238 55.9938 10.9553 57.9474C11.7868 59.901 13.1387 61.5888 14.8636 62.8268C16.5886 64.0648 18.6203 64.8055 20.7372 64.9681L19.9446 62.0883C19.6717 61.0846 19.8069 60.0137 20.3208 59.1093C20.8346 58.2049 21.6853 57.5406 22.6873 57.2612V57.2612C23.691 56.9883 24.7619 57.1235 25.6662 57.6374C26.5706 58.1512 27.235 59.0019 27.5143 60.0038L28.307 62.8836C30.2572 61.5077 31.7356 59.5636 32.5406 57.3167C33.3455 55.0697 33.4378 52.6291 32.8049 50.3278V50.3278Z" fill="#BDBDBD"/>
<path d="M22.3814 56.1703C24.7548 55.5179 26.1499 53.065 25.4975 50.6916C24.8451 48.3182 22.3922 46.9231 20.0188 47.5755C17.6454 48.2279 16.2503 50.6808 16.9027 53.0542C17.5551 55.4276 20.008 56.8227 22.3814 56.1703Z" fill="white" stroke="white" stroke-miterlimit="10"/>
<path d="M22.6818 57.2612C21.6798 57.5406 20.8291 58.2049 20.3153 59.1093C19.8014 60.0136 19.6662 61.0846 19.9391 62.0883L20.7317 64.9681C23.4208 65.1723 26.0974 64.4366 28.3042 62.8864L27.5116 60.0066C27.2328 59.0035 26.5683 58.1517 25.6632 57.6372C24.7582 57.1227 23.6862 56.9876 22.6818 57.2612V57.2612Z" fill="white" stroke="white" stroke-miterlimit="10"/>
<path d="M16.8042 52.8181C16.2766 52.2467 15.9128 51.5437 15.7511 50.783C15.5933 50.016 15.7419 49.2176 16.1652 48.5587C16.6452 47.8539 17.4405 47.4315 18.2441 47.1408C19.0477 46.8501 19.8897 46.6608 20.6522 46.2796C21.2825 45.9609 21.8433 45.5202 22.3019 44.983C22.7605 44.4457 23.1077 43.8228 23.3235 43.1502C23.5771 43.7568 23.746 44.3955 23.8254 45.0481C23.8635 45.3748 23.8345 45.7057 23.7402 46.0208C23.6458 46.3358 23.4882 46.6282 23.2769 46.8802C23.8474 46.3975 23.9708 47.1271 23.9461 47.5906C24.3767 47.8923 25.1803 47.7414 25.3613 48.2351C25.5656 48.7208 25.6503 49.2485 25.6082 49.7737C25.5396 50.2948 25.9757 51.0573 25.482 51.2328" fill="white"/>
<path d="M16.8042 52.8181C16.2766 52.2467 15.9128 51.5437 15.7511 50.783C15.5933 50.016 15.7419 49.2176 16.1652 48.5587C16.6452 47.8539 17.4405 47.4315 18.2441 47.1408C19.0477 46.8501 19.8897 46.6608 20.6522 46.2796C21.2825 45.9609 21.8433 45.5202 22.3019 44.983C22.7605 44.4457 23.1077 43.8228 23.3235 43.1502C23.5771 43.7568 23.746 44.3955 23.8254 45.0481C23.8635 45.3748 23.8345 45.7057 23.7402 46.0208C23.6458 46.3358 23.4882 46.6282 23.2769 46.8802C23.8474 46.3975 23.9708 47.1271 23.9461 47.5906C24.3767 47.8923 25.1803 47.7414 25.3613 48.2351C25.5656 48.7208 25.6503 49.2485 25.6082 49.7737C25.5396 50.2948 25.9757 51.0573 25.482 51.2328" stroke="white" stroke-miterlimit="10"/>
<path d="M23.4799 46.7102C23.4799 46.7102 26.5517 46.1479 25.6384 51.1862Z" fill="white"/>
<path d="M174.918 195.894H146.003V78.3796H200L174.918 195.894Z" fill="url(#paint3_linear)"/>
<path d="M173.479 195.894H145.133V78.3796H198.064L173.479 195.894Z" fill="#BDBDBD"/>
<path d="M180.238 41.8422L91.5302 51.2441L103.891 167.872L192.599 158.47L180.238 41.8422Z" fill="url(#paint4_linear)"/>
<path d="M180.329 41.7223L91.4166 51.1458L96.1281 95.5994L185.041 86.1758L180.329 41.7223Z" fill="url(#paint5_linear)"/>
<path d="M179.2 42.8647L92.761 52.026L104.834 165.941L191.273 156.779L179.2 42.8647Z" fill="#F5F5F5"/>
<path d="M179.287 42.7467L92.6494 51.9292L97.251 95.3464L183.889 86.1639L179.287 42.7467Z" fill="#49a7b7"/>
<path d="M140.276 103.175L116.774 105.665L116.964 107.457L140.466 104.966L140.276 103.175Z" fill="#BDBDBD"/>
<path d="M141.036 110.345L117.534 112.835L117.724 114.627L141.226 112.136L141.036 110.345Z" fill="#F5F5F5"/>
<path d="M178.497 102.749L117.153 109.251L117.343 111.043L178.687 104.541L178.497 102.749Z" fill="#BDBDBD"/>
<path d="M151.831 62.0715L128.329 64.5624L128.519 66.3543L152.021 63.8634L151.831 62.0715Z" fill="white"/>
<path d="M166.591 64.5362L128.749 68.547L128.939 70.3389L166.781 66.3281L166.591 64.5362Z" fill="white"/>
<path opacity="0.2" d="M159.126 70.5608L137.31 72.873C136.845 72.9224 136.507 73.3397 136.556 73.8051L136.589 74.1106C136.638 74.576 137.056 74.9134 137.521 74.864L159.337 72.5518C159.803 72.5025 160.14 72.0852 160.091 71.6197L160.058 71.3143C160.009 70.8488 159.592 70.5115 159.126 70.5608Z" fill="black"/>
<path d="M107.381 113.006C109.692 112.762 111.366 110.69 111.121 108.379C110.876 106.069 108.805 104.394 106.494 104.639C104.183 104.884 102.509 106.955 102.754 109.266C102.999 111.577 105.07 113.251 107.381 113.006Z" fill="#69F0AE"/>
<path d="M142.114 120.5L118.612 122.991L118.802 124.783L142.304 122.292L142.114 120.5Z" fill="#BDBDBD"/>
<path d="M142.874 127.67L119.372 130.161L119.562 131.953L143.064 129.462L142.874 127.67Z" fill="#F5F5F5"/>
<path d="M180.335 120.075L118.991 126.577L119.181 128.369L180.525 121.867L180.335 120.075Z" fill="#E0E0E0"/>
<path d="M109.219 130.332C111.529 130.087 113.204 128.016 112.959 125.705C112.714 123.395 110.642 121.72 108.332 121.965C106.021 122.21 104.346 124.281 104.591 126.592C104.836 128.903 106.908 130.577 109.219 130.332Z" fill="#E0E0E0"/>
<path d="M143.949 137.827L120.447 140.318L120.637 142.109L144.139 139.619L143.949 137.827Z" fill="#BDBDBD"/>
<path d="M144.709 144.997L121.207 147.488L121.397 149.279L144.899 146.789L144.709 144.997Z" fill="#F5F5F5"/>
<path d="M182.17 137.401L120.826 143.903L121.016 145.695L182.36 139.193L182.17 137.401Z" fill="#E0E0E0"/>
<path d="M111.054 147.659C113.365 147.414 115.039 145.342 114.794 143.031C114.549 140.721 112.478 139.046 110.167 139.291C107.856 139.536 106.182 141.608 106.427 143.918C106.672 146.229 108.743 147.903 111.054 147.659Z" fill="#E0E0E0"/>
<path d="M98.8179 72.4582C99.0656 74.5672 99.8877 76.5677 101.195 78.2415C102.501 79.9153 104.243 81.1981 106.228 81.9501C108.214 82.702 110.369 82.8942 112.456 82.5057C114.544 82.1171 116.485 81.1628 118.067 79.7468C119.65 78.3308 120.813 76.5074 121.43 74.4756C122.047 72.4437 122.095 70.2814 121.567 68.2245C121.04 66.1676 119.957 64.295 118.438 62.8111C116.919 61.3271 115.022 60.2887 112.954 59.8091L113.305 62.7767C113.42 63.807 113.125 64.8413 112.482 65.6551C111.84 66.4689 110.903 66.9967 109.874 67.1238V67.1238C108.84 67.2429 107.801 66.9481 106.984 66.3036C106.167 65.6592 105.638 64.7176 105.513 63.6845L105.162 60.7169C103.024 61.7829 101.268 63.4827 100.133 65.5841C98.9971 67.6855 98.538 70.0862 98.8179 72.4582Z" fill="url(#paint6_linear)"/>
<path d="M121.758 68.8023C121.533 66.6912 120.733 64.6823 119.446 62.9946C118.158 61.3068 116.431 60.0049 114.455 59.2309C112.478 58.4568 110.326 58.2403 108.235 58.6049C106.144 58.9695 104.193 59.9012 102.594 61.2985C100.996 62.6958 99.812 64.505 99.1713 66.529C98.5306 68.5529 98.4578 70.7139 98.9609 72.7764C99.464 74.8388 100.524 76.7236 102.024 78.2253C103.525 79.727 105.409 80.7878 107.471 81.2923L107.156 78.322C107.049 77.2868 107.356 76.2514 108.01 75.442C108.664 74.6325 109.612 74.115 110.647 74.0023V74.0023C111.682 73.8955 112.718 74.2027 113.527 74.8569C114.336 75.5111 114.854 76.4591 114.967 77.4938L115.282 80.464C117.43 79.4226 119.205 77.7439 120.363 75.6568C121.522 73.5698 122.009 71.1761 121.758 68.8023V68.8023Z" fill="#6C63FF"/>
<path d="M110.536 72.8684C112.983 72.609 114.757 70.4144 114.498 67.9666C114.239 65.5189 112.044 63.7449 109.596 64.0044C107.148 64.2638 105.375 66.4584 105.634 68.9061C105.893 71.3538 108.088 73.1278 110.536 72.8684Z" fill="white" stroke="white" stroke-miterlimit="10"/>
<path d="M110.647 74.0024C109.612 74.115 108.664 74.6326 108.01 75.442C107.356 76.2514 107.049 77.2868 107.156 78.322L107.471 81.2923C110.091 81.9313 112.852 81.6405 115.282 80.4695L114.967 77.4992C114.855 76.4636 114.338 75.5143 113.529 74.8589C112.719 74.2036 111.683 73.8956 110.647 74.0024Z" fill="white" stroke="white" stroke-miterlimit="10"/>
<path d="M105.568 68.6652C105.139 68.0155 104.894 67.2622 104.857 66.4847C104.826 65.7032 105.102 64.9404 105.625 64.3592C106.212 63.7393 107.068 63.4514 107.907 63.295C108.746 63.1387 109.599 63.1003 110.422 62.826C111.096 62.6137 111.72 62.2697 112.26 61.814C112.8 61.3582 113.243 60.7998 113.565 60.1711C113.717 60.8103 113.781 61.4674 113.754 62.1239C113.739 62.4526 113.657 62.7746 113.512 63.0703C113.368 63.366 113.165 63.6292 112.915 63.8436C113.554 63.4596 113.56 64.1974 113.464 64.6526C113.839 65.0202 114.657 65.001 114.755 65.5193C114.88 66.0311 114.88 66.5654 114.755 67.0772C114.602 67.5791 114.912 68.4046 114.393 68.4951" fill="white"/>
<path d="M105.568 68.6652C105.139 68.0155 104.894 67.2622 104.857 66.4847C104.826 65.7032 105.102 64.9404 105.625 64.3592C106.212 63.7393 107.068 63.4514 107.907 63.295C108.746 63.1387 109.599 63.1003 110.422 62.826C111.096 62.6137 111.72 62.2697 112.26 61.814C112.8 61.3582 113.243 60.7998 113.565 60.1711C113.717 60.8103 113.781 61.4674 113.754 62.1239C113.739 62.4526 113.657 62.7746 113.512 63.0703C113.368 63.366 113.165 63.6292 112.915 63.8436C113.554 63.4596 113.56 64.1974 113.464 64.6526C113.839 65.0202 114.657 65.001 114.755 65.5193C114.88 66.0311 114.88 66.5654 114.755 67.0772C114.602 67.5791 114.912 68.4046 114.393 68.4951" stroke="white" stroke-miterlimit="10"/>
<path d="M113.146 63.7201C113.146 63.7201 116.267 63.6625 114.553 68.4869Z" fill="white"/>
<path d="M149.626 0.109711H60.4207V117.391H149.626V0.109711Z" fill="url(#paint7_linear)"/>
<path d="M149.727 0H60.3165V44.7026H149.727V0Z" fill="url(#paint8_linear)"/>
<path d="M148.485 1.01752H61.5617V115.57H148.485V1.01752Z" fill="#F5F5F5"/>
<path d="M148.586 0.910553H61.4629V44.5709H148.586V0.910553Z" fill="#49a7b7"/>
<path d="M103.42 56.8882H79.7866V58.6901H103.42V56.8882Z" fill="#BDBDBD"/>
<path d="M103.42 64.0986H79.7866V65.9005H103.42V64.0986Z" fill="#F5F5F5"/>
<path d="M141.474 60.4948H79.7866V62.2967H141.474V60.4948Z" fill="#BDBDBD"/>
<path d="M119.242 17.2349H95.609V19.0368H119.242V17.2349Z" fill="white"/>
<path d="M133.663 21.2391H95.609V23.0411H133.663V21.2391Z" fill="white"/>
<path opacity="0.2" d="M125.605 26.4474H103.667C103.199 26.4474 102.819 26.8269 102.819 27.2949V27.6021C102.819 28.0702 103.199 28.4496 103.667 28.4496H125.605C126.073 28.4496 126.453 28.0702 126.453 27.6021V27.2949C126.453 26.8269 126.073 26.4474 125.605 26.4474Z" fill="black"/>
<path d="M69.6744 63.199C71.998 63.199 73.8817 61.3154 73.8817 58.9918C73.8817 56.6682 71.998 54.7845 69.6744 54.7845C67.3509 54.7845 65.4672 56.6682 65.4672 58.9918C65.4672 61.3154 67.3509 63.199 69.6744 63.199Z" fill="#BDBDBD"/>
<path d="M103.42 74.3123H79.7866V76.1142H103.42V74.3123Z" fill="#BDBDBD"/>
<path d="M103.42 81.5227H79.7866V83.3247H103.42V81.5227Z" fill="#F5F5F5"/>
<path d="M141.474 77.9189H79.7866V79.7208H141.474V77.9189Z" fill="#E0E0E0"/>
<path d="M69.6744 80.6231C71.998 80.6231 73.8817 78.7395 73.8817 76.4159C73.8817 74.0923 71.998 72.2087 69.6744 72.2087C67.3509 72.2087 65.4672 74.0923 65.4672 76.4159C65.4672 78.7395 67.3509 80.6231 69.6744 80.6231Z" fill="#E0E0E0"/>
<path d="M103.42 91.7391H79.7866V93.541H103.42V91.7391Z" fill="#BDBDBD"/>
<path d="M103.42 98.9468H79.7866V100.749H103.42V98.9468Z" fill="#F5F5F5"/>
<path d="M141.474 95.343H79.7866V97.1449H141.474V95.343Z" fill="#E0E0E0"/>
<path d="M69.6744 98.0472C71.998 98.0472 73.8817 96.1636 73.8817 93.84C73.8817 91.5164 71.998 89.6328 69.6744 89.6328C67.3509 89.6328 65.4672 91.5164 65.4672 93.84C65.4672 96.1636 67.3509 98.0472 69.6744 98.0472Z" fill="#E0E0E0"/>
<path d="M65.4425 21.9769C65.4692 24.0996 66.078 26.1742 67.2026 27.9746C68.3272 29.7751 69.9244 31.2323 71.8203 32.1874C73.7161 33.1425 75.8377 33.5588 77.9539 33.3911C80.0701 33.2234 82.0996 32.4779 83.8213 31.2361C85.5429 29.9942 86.8907 28.3036 87.7176 26.3484C88.5445 24.3933 88.8188 22.2487 88.5107 20.1483C88.2026 18.048 87.3239 16.0725 85.9703 14.4373C84.6166 12.802 82.8401 11.5697 80.8343 10.8746L80.87 13.8614C80.8824 14.9055 80.4797 15.9118 79.7504 16.6591C79.0212 17.4064 78.025 17.8335 76.9809 17.8465C75.9406 17.856 74.9387 17.4535 74.1941 16.7269C73.4495 16.0003 73.0227 15.0086 73.0068 13.9684L72.9711 10.9816C70.7384 11.8185 68.8178 13.3231 67.4707 15.2905C66.1236 17.2579 65.4154 19.5926 65.4425 21.9769Z" fill="url(#paint9_linear)"/>
<path d="M88.6317 20.7564C88.6307 18.6335 88.0471 16.5516 86.9443 14.7377C85.8414 12.9237 84.2618 11.4473 82.3776 10.4693C80.4934 9.49141 78.3769 9.04947 76.2588 9.19171C74.1406 9.33396 72.1022 10.0549 70.3657 11.276C68.6291 12.4971 67.2611 14.1715 66.4108 16.1166C65.5604 18.0618 65.2603 20.203 65.5432 22.307C65.8261 24.4109 66.6812 26.3968 68.0152 28.0482C69.3491 29.6997 71.1109 30.9532 73.1083 31.6722V28.6827C73.1112 27.642 73.5259 26.6447 74.2618 25.9087C74.9977 25.1728 75.995 24.7581 77.0358 24.7552C78.0765 24.7581 79.0738 25.1728 79.8097 25.9087C80.5456 26.6447 80.9603 27.642 80.9632 28.6827V31.6695C83.2088 30.8603 85.1502 29.3781 86.5225 27.4251C87.8949 25.4721 88.6314 23.1434 88.6317 20.7564Z" fill="#BDBDBD"/>
<path d="M77.0412 23.6198C79.5027 23.6198 81.498 21.6244 81.498 19.163C81.498 16.7015 79.5027 14.7061 77.0412 14.7061C74.5798 14.7061 72.5844 16.7015 72.5844 19.163C72.5844 21.6244 74.5798 23.6198 77.0412 23.6198Z" fill="white" stroke="white" stroke-miterlimit="10"/>
<path d="M77.033 24.7552C75.9922 24.7581 74.995 25.1728 74.259 25.9087C73.5231 26.6447 73.1084 27.642 73.1055 28.6827V31.6695C75.6447 32.5796 78.4213 32.5796 80.9605 31.6695V28.6827C80.9576 27.642 80.5429 26.6447 79.8069 25.9087C79.071 25.1728 78.0737 24.7581 77.033 24.7552Z" fill="white" stroke="white" stroke-miterlimit="10"/>
<path d="M72.546 18.9134C72.1889 18.2218 72.025 17.4468 72.0715 16.6699C72.1223 15.8886 72.4766 15.1582 73.0589 14.6348C73.7089 14.0863 74.5893 13.8861 75.4395 13.812C76.2897 13.738 77.1509 13.7846 77.9902 13.62C78.6822 13.4797 79.3394 13.2032 79.9237 12.8068C80.5079 12.4104 81.0077 11.9018 81.3938 11.3107C81.4773 11.9622 81.4708 12.622 81.3746 13.2717C81.3247 13.5967 81.2089 13.9081 81.0344 14.1868C80.8599 14.4655 80.6304 14.7057 80.3598 14.8926C81.0373 14.58 80.9632 15.3123 80.8179 15.7538C81.1525 16.1597 81.9698 16.2256 82.0109 16.7521C82.0791 17.2748 82.0208 17.8063 81.8409 18.3017C81.6352 18.7845 81.8546 19.6374 81.3307 19.6731" fill="white"/>
<path d="M72.546 18.9134C72.1889 18.2218 72.025 17.4468 72.0715 16.6699C72.1223 15.8886 72.4766 15.1582 73.0589 14.6348C73.7089 14.0863 74.5893 13.8861 75.4395 13.812C76.2897 13.738 77.1509 13.7846 77.9902 13.62C78.6822 13.4797 79.3394 13.2032 79.9237 12.8068C80.5079 12.4104 81.0077 11.9018 81.3938 11.3107C81.4773 11.9622 81.4708 12.622 81.3746 13.2717C81.3247 13.5967 81.2089 13.9081 81.0344 14.1868C80.8599 14.4655 80.6304 14.7057 80.3598 14.8926C81.0373 14.58 80.9632 15.3123 80.8179 15.7538C81.1525 16.1597 81.9698 16.2256 82.0109 16.7521C82.0791 17.2748 82.0208 17.8063 81.8409 18.3017C81.6352 18.7845 81.8546 19.6374 81.3307 19.6731" stroke="white" stroke-miterlimit="10"/>
<path d="M80.6012 14.7966C80.6012 14.7966 83.7114 15.0709 81.498 19.684Z" fill="white"/>
<path d="M52.2723 83.5797L32.7528 69.9131H5.72666V83.5797V90.2745V204.641H174.636V83.5797H52.2723Z" fill="url(#paint10_linear)"/>
<path d="M7.17205 84.962V91.4621V202.477H173.478V84.962H53.0018" fill="white"/>
<path d="M53.0018 84.962L33.7813 71.6958H7.17205V84.962" fill="#BDBDBD"/>
<path d="M136.129 102.304H44.5243V185.132H136.129V102.304Z" fill="url(#paint11_linear)"/>
<path d="M135.295 102.907H45.7695V183.626H135.295V102.907Z" fill="white"/>
<path d="M108.755 163.322H73.5553V166.205H108.755V163.322Z" fill="#BDBDBD"/>
<path d="M128.99 169.09H52.0748V171.973H128.99V169.09Z" fill="#E0E0E0"/>
<path d="M128.99 174.858H52.0748V177.741H128.99V174.858Z" fill="#E0E0E0"/>
<path d="M68.6295 133.77C68.6797 137.778 69.829 141.696 71.9523 145.096C74.0756 148.495 77.0914 151.247 80.671 153.051C84.2505 154.855 88.2565 155.642 92.2524 155.325C96.2483 155.009 100.081 153.602 103.332 151.258C106.583 148.914 109.129 145.722 110.691 142.03C112.253 138.339 112.772 134.29 112.191 130.324C111.611 126.357 109.952 122.627 107.397 119.538C104.842 116.45 101.489 114.122 97.7017 112.808L97.7702 118.45C97.7886 120.414 97.0287 122.306 95.6566 123.712C94.2845 125.118 92.4117 125.924 90.4473 125.954C88.4828 125.972 86.5909 125.212 85.1849 123.84C83.7789 122.468 82.973 120.595 82.9434 118.631L82.8749 112.989C78.6502 114.566 75.0151 117.408 72.4656 121.127C69.916 124.846 68.5764 129.261 68.6295 133.77Z" fill="url(#paint12_linear)"/>
<path d="M112.43 131.469C112.429 127.46 111.328 123.528 109.246 120.102C107.164 116.676 104.181 113.887 100.623 112.039C97.0647 110.192 93.0676 109.357 89.0675 109.625C85.0673 109.893 81.2175 111.254 77.9378 113.56C74.6582 115.866 72.0745 119.028 70.4686 122.702C68.8626 126.375 68.296 130.419 68.8304 134.393C69.3649 138.366 70.98 142.116 73.4996 145.235C76.0192 148.353 79.3465 150.72 83.119 152.078V146.436C83.1269 144.474 83.9096 142.595 85.2967 141.208C86.6837 139.821 88.5626 139.039 90.5241 139.031V139.031C92.4857 139.039 94.3646 139.821 95.7516 141.208C97.1386 142.595 97.9214 144.474 97.9293 146.436V152.078C102.174 150.553 105.844 147.755 108.439 144.067C111.035 140.379 112.428 135.979 112.43 131.469Z" fill="#BDBDBD"/>
<path d="M91.2701 135.161C91.2701 134.434 90.6807 133.844 89.9537 133.844C89.2266 133.844 88.6372 134.434 88.6372 135.161V141.812C88.6372 142.539 89.2266 143.128 89.9537 143.128C90.6807 143.128 91.2701 142.539 91.2701 141.812V135.161Z" fill="white" stroke="white" stroke-miterlimit="10"/>
<path d="M89.9674 135.092C94.6161 135.092 98.3846 131.324 98.3846 126.675C98.3846 122.026 94.6161 118.258 89.9674 118.258C85.3187 118.258 81.5501 122.026 81.5501 126.675C81.5501 131.324 85.3187 135.092 89.9674 135.092Z" fill="white" stroke="white" stroke-miterlimit="10"/>
<path d="M89.9536 137.237C87.9921 137.245 86.1132 138.028 84.7262 139.415C83.3392 140.802 82.5564 142.681 82.5485 144.642V150.284C87.3424 152.002 92.5841 152.002 97.378 150.284V144.653C97.3729 142.686 96.5888 140.802 95.1974 139.412C93.8059 138.022 91.9204 137.24 89.9536 137.237Z" fill="white" stroke="white" stroke-miterlimit="10"/>
<path d="M81.4788 126.209C80.8043 124.904 80.4945 123.441 80.582 121.974C80.6788 120.5 81.3481 119.122 82.447 118.134C83.673 117.09 85.335 116.719 86.9422 116.59C88.5494 116.461 90.1758 116.538 91.7556 116.228C93.0619 115.964 94.3027 115.442 95.4059 114.694C96.509 113.946 97.4525 112.986 98.1816 111.87C98.2831 113.104 98.3846 114.358 98.1459 115.576C97.9073 116.793 97.282 117.986 96.2261 118.636C97.5042 118.044 97.3643 119.432 97.0873 120.263C97.7208 121.028 99.2595 121.154 99.339 122.144C99.4186 123.134 99.4048 124.157 99.0181 125.071C98.6314 125.984 99.0455 127.591 98.0582 127.662" fill="white"/>
<path d="M81.4788 126.209C80.8043 124.904 80.4945 123.441 80.582 121.974C80.6788 120.5 81.3481 119.122 82.447 118.134C83.673 117.09 85.335 116.719 86.9422 116.59C88.5494 116.461 90.1758 116.538 91.7556 116.228C93.0619 115.964 94.3027 115.442 95.4059 114.694C96.509 113.946 97.4525 112.986 98.1816 111.87C98.2831 113.104 98.3846 114.358 98.1459 115.576C97.9073 116.793 97.282 117.986 96.2261 118.636C97.5042 118.044 97.3643 119.432 97.0873 120.263C97.7208 121.028 99.2595 121.154 99.339 122.144C99.4186 123.134 99.4048 124.157 99.0181 125.071C98.6314 125.984 99.0455 127.591 98.0582 127.662" stroke="white" stroke-miterlimit="10"/>
<path d="M96.6924 118.433C96.6924 118.433 102.564 118.946 98.3846 127.662Z" fill="white"/>
</g>
<defs>
<linearGradient id="paint0_linear" x1="74.5009" y1="137.875" x2="42.8349" y2="25.285" gradientUnits="userSpaceOnUse">
<stop stop-color="#808080" stop-opacity="0.25"/>
<stop offset="0.54" stop-color="#808080" stop-opacity="0.12"/>
<stop offset="1" stop-color="#808080" stop-opacity="0.1"/>
</linearGradient>
<linearGradient id="paint1_linear" x1="54.9517" y1="69.0803" x2="43.1032" y2="25.9765" gradientUnits="userSpaceOnUse">
<stop stop-color="#B3B3B3" stop-opacity="0.25"/>
<stop offset="0.54" stop-color="#B3B3B3" stop-opacity="0.1"/>
<stop offset="1" stop-color="#B3B3B3" stop-opacity="0.05"/>
</linearGradient>
<linearGradient id="paint2_linear" x1="25.4637" y1="66.3345" x2="18.2118" y2="44.86" gradientUnits="userSpaceOnUse">
<stop stop-opacity="0.12"/>
<stop offset="0.55" stop-opacity="0.09"/>
<stop offset="1" stop-opacity="0.02"/>
</linearGradient>
<linearGradient id="paint3_linear" x1="34206.5" y1="84013.2" x2="34206.5" y2="33661.7" gradientUnits="userSpaceOnUse">
<stop stop-color="#808080" stop-opacity="0.25"/>
<stop offset="0.54" stop-color="#808080" stop-opacity="0.12"/>
<stop offset="1" stop-color="#808080" stop-opacity="0.1"/>
</linearGradient>
<linearGradient id="paint4_linear" x1="73824.5" y1="71573.8" x2="68538.7" y2="21701.2" gradientUnits="userSpaceOnUse">
<stop stop-color="#808080" stop-opacity="0.25"/>
<stop offset="0.54" stop-color="#808080" stop-opacity="0.12"/>
<stop offset="1" stop-color="#808080" stop-opacity="0.1"/>
</linearGradient>
<linearGradient id="paint5_linear" x1="67576.8" y1="11224.4" x2="66809" y2="3979.37" gradientUnits="userSpaceOnUse">
<stop stop-color="#B3B3B3" stop-opacity="0.25"/>
<stop offset="0.54" stop-color="#B3B3B3" stop-opacity="0.1"/>
<stop offset="1" stop-color="#B3B3B3" stop-opacity="0.05"/>
</linearGradient>
<linearGradient id="paint6_linear" x1="-14870.9" y1="-5722.25" x2="-15170.4" y2="-7590.31" gradientUnits="userSpaceOnUse">
<stop stop-opacity="0.12"/>
<stop offset="0.55" stop-opacity="0.09"/>
<stop offset="1" stop-opacity="0.02"/>
</linearGradient>
<linearGradient id="paint7_linear" x1="34218.8" y1="50200.1" x2="34218.8" y2="47.0247" gradientUnits="userSpaceOnUse">
<stop stop-color="#808080" stop-opacity="0.25"/>
<stop offset="0.54" stop-color="#808080" stop-opacity="0.12"/>
<stop offset="1" stop-color="#808080" stop-opacity="0.1"/>
</linearGradient>
<linearGradient id="paint8_linear" x1="34297.4" y1="7286.07" x2="34297.4" y2="0" gradientUnits="userSpaceOnUse">
<stop stop-color="#B3B3B3" stop-opacity="0.25"/>
<stop offset="0.54" stop-color="#B3B3B3" stop-opacity="0.1"/>
<stop offset="1" stop-color="#B3B3B3" stop-opacity="0.05"/>
</linearGradient>
<linearGradient id="paint9_linear" x1="-16880.5" y1="-10929.9" x2="-16974.8" y2="-12791.7" gradientUnits="userSpaceOnUse">
<stop stop-opacity="0.12"/>
<stop offset="0.55" stop-opacity="0.09"/>
<stop offset="1" stop-opacity="0.02"/>
</linearGradient>
<linearGradient id="paint10_linear" x1="55544.8" y1="100595" x2="55544.8" y2="34413.3" gradientUnits="userSpaceOnUse">
<stop stop-color="#808080" stop-opacity="0.25"/>
<stop offset="0.54" stop-color="#808080" stop-opacity="0.12"/>
<stop offset="1" stop-color="#808080" stop-opacity="0.1"/>
</linearGradient>
<linearGradient id="paint11_linear" x1="30213.6" y1="56012.2" x2="30213.6" y2="30998.1" gradientUnits="userSpaceOnUse">
<stop stop-color="#808080" stop-opacity="0.25"/>
<stop offset="0.54" stop-color="#808080" stop-opacity="0.12"/>
<stop offset="1" stop-color="#808080" stop-opacity="0.1"/>
</linearGradient>
<linearGradient id="paint12_linear" x1="-29815.7" y1="-1921.31" x2="-30152.1" y2="-8558.3" gradientUnits="userSpaceOnUse">
<stop stop-opacity="0.12"/>
<stop offset="0.55" stop-opacity="0.09"/>
<stop offset="1" stop-opacity="0.02"/>
</linearGradient>
<clipPath id="clip0">
<rect width="200" height="204.641" fill="white"/>
</clipPath>
</defs>
</svg>
